HIERARCHY
ROOT Pelvis
{
	OFFSET 0.000000 0.000000 0.000000
	CHANNELS 6 Xposition Yposition Zposition Xrotation Yrotation Zrotation
	JOINT LeftUpLeg_virtual
	{
		OFFSET 0.000000 0.000000 0.000000
		CHANNELS 3 Xrotation Yrotation Zrotation
		JOINT LeftUpLeg
		{
			OFFSET 18.735201 -5.666702 -4.541200
			CHANNELS 3 Xrotation Yrotation Zrotation
			JOINT LeftLeg
			{
				OFFSET -0.021200 -31.938179 0.493100
				CHANNELS 3 Xrotation Yrotation Zrotation
				JOINT LeftFoot
				{
					OFFSET 0.021200 -31.938179 -4.336299
					CHANNELS 3 Xrotation Yrotation Zrotation
					JOINT LeftToeBase
					{
						OFFSET 0.943001 -26.722000 15.023500
						CHANNELS 3 Xrotation Yrotation Zrotation
						End Site
						{
							OFFSET 0 0 0
						}
					}
				}
			}
		}
	}
	JOINT RightUpLeg_virtual
	{
		OFFSET 0.000000 0.000000 0.000000
		CHANNELS 3 Xrotation Yrotation Zrotation
		JOINT RightUpLeg
		{
			OFFSET -18.735201 -5.666702 -4.541200
			CHANNELS 3 Xrotation Yrotation Zrotation
			JOINT RightLeg
			{
				OFFSET 0.018946 -31.938133 0.493100
				CHANNELS 3 Xrotation Yrotation Zrotation
				JOINT RightFoot
				{
					OFFSET -0.018946 -31.938126 -4.336299
					CHANNELS 3 Xrotation Yrotation Zrotation
					JOINT RightToeBase
					{
						OFFSET -0.943001 -26.722004 15.023500
						CHANNELS 3 Xrotation Yrotation Zrotation
						End Site
						{
							OFFSET 0 0 0
						}
					}
				}
			}
		}
	}
	JOINT Hips_virtual
	{
		OFFSET 0.000000 0.000000 0.000000
		CHANNELS 3 Xrotation Yrotation Zrotation
		JOINT Hips
		{
			OFFSET -0.000000 -0.000000 -0.000000
			CHANNELS 3 Xrotation Yrotation Zrotation
			JOINT Spine
			{
				OFFSET 0.000000 10.199997 -0.299500
				CHANNELS 3 Xrotation Yrotation Zrotation
				JOINT Spine1
				{
					OFFSET 0.000000 11.900002 -1.516600
					CHANNELS 3 Xrotation Yrotation Zrotation
					JOINT Spine2
					{
						OFFSET 0.000000 13.600006 -2.842500
						CHANNELS 3 Xrotation Yrotation Zrotation
						JOINT Neck_virtual
						{
							OFFSET 0.000000 0.000000 0.000000
							CHANNELS 3 Xrotation Yrotation Zrotation
							JOINT Neck
							{
								OFFSET 0.000000 9.624100 -2.890100
								CHANNELS 3 Xrotation Yrotation Zrotation
								JOINT Head
								{
									OFFSET 0.000000 14.068802 -1.351900
									CHANNELS 3 Xrotation Yrotation Zrotation
									End Site
									{
										OFFSET 0 0 0
									}
								}
							}
						}
						JOINT LeftShoulder_virtual
						{
							OFFSET 0.000000 0.000000 0.000000
							CHANNELS 3 Xrotation Yrotation Zrotation
							JOINT LeftShoulder
							{
								OFFSET 15.263000 10.923401 -0.547700
								CHANNELS 3 Xrotation Yrotation Zrotation
								JOINT LeftArm
								{
									OFFSET 25.438599 -2.830597 -13.032500
									CHANNELS 3 Xrotation Yrotation Zrotation
									JOINT LeftForeArm
									{
										OFFSET 29.960503 0.000000 0.000000
										CHANNELS 3 Xrotation Yrotation Zrotation
										JOINT LeftHand
										{
											OFFSET 27.849251 0.000000 0.000000
											CHANNELS 3 Xrotation Yrotation Zrotation
											End Site
											{
												OFFSET 0 0 0
											}
										}
									}
								}
							}
						}
						JOINT RightShoulder_virtual
						{
							OFFSET 0.000000 0.000000 0.000000
							CHANNELS 3 Xrotation Yrotation Zrotation
							JOINT RightShoulder
							{
								OFFSET -15.263000 10.923401 -0.547700
								CHANNELS 3 Xrotation Yrotation Zrotation
								JOINT RightArm
								{
									OFFSET -25.438599 -2.830597 -13.032500
									CHANNELS 3 Xrotation Yrotation Zrotation
									JOINT RightForeArm
									{
										OFFSET -29.960503 0.000000 0.000000
										CHANNELS 3 Xrotation Yrotation Zrotation
										JOINT RightHand
										{
											OFFSET -27.849251 0.000000 0.000000
											CHANNELS 3 Xrotation Yrotation Zrotation
											End Site
											{
												OFFSET 0 0 0
											}
										}
									}
								}
							}
						}
					}
				}
			}
		}
	}
}
MOTION
Frames: 12
Frame Time: 0.03333333
-2.783956 87.822464 2.837318 0.000000 0.000000 0.000000 -6.078097 -42.937933 -3.789456 -34.393069 2.849959 16.371219 38.633046 -14.745557 -0.131482 -1.804925 0.989410 -11.110717 0.000000 0.000000 0.000000 -6.078097 -42.937933 -3.789456 1.083457 -13.658552 -18.458175 33.744823 -7.728625 -0.245048 -25.563004 -6.500541 21.389688 0.000000 0.000000 0.000000 -6.078097 -42.937933 -3.789456 0.000000 0.000003 0.000000 5.850682 4.526503 -1.455086 11.836539 9.038709 -3.084348 0.000000 0.000000 0.000000 11.836540 9.038695 -3.084345 -0.860945 -0.253287 0.048896 0.000000 0.000000 0.000000 11.836540 9.038695 -3.084345 1.392499 -0.696014 -7.877856 -14.260097 2.394329 -63.277106 9.865074 -47.524921 5.927939 0.000000 0.000000 0.000000 11.836540 9.038695 -3.084345 1.410967 9.461537 9.792727 1.220078 -24.270731 60.532920 -6.660709 41.858439 8.043841 0.000000 0.000000 0.000000 
-2.330359 88.031349 2.319092 0.000000 0.000000 0.000000 -6.183900 -43.215153 -3.965467 -34.126323 2.996083 16.652928 37.103445 -14.038136 -0.513300 -0.566110 0.282695 -11.127293 0.000000 0.000000 0.000000 -6.183900 -43.215153 -3.965467 -0.277813 -14.048206 -18.646604 34.569613 -6.457575 -0.328521 -25.128855 -6.232609 20.741920 0.000000 0.000000 0.000000 -6.183900 -43.215153 -3.965467 0.000000 0.000000 0.000000 5.922460 4.487075 -1.417123 11.981814 8.966216 -3.057289 0.000000 0.000000 0.000000 11.981817 8.966204 -3.057286 -0.926868 -0.240120 0.086556 0.000000 0.000000 0.000000 11.981817 8.966204 -3.057286 1.424251 -0.917261 -7.638832 -13.828634 2.336943 -63.082944 10.239114 -47.620789 6.058591 0.000000 0.000000 0.000000 11.981817 8.966204 -3.057286 1.548607 9.197634 9.728927 -0.123828 -23.268393 59.659947 -6.921684 41.713420 8.099089 0.000000 0.000000 0.000000 
-1.751786 88.522095 1.150032 0.000000 0.000000 0.000000 -5.633534 -43.654242 -4.092622 -33.847313 3.249949 17.753630 33.423479 -12.389620 -1.138214 2.211091 -1.479242 -11.522418 0.000000 0.000000 0.000000 -5.633534 -43.654242 -4.092622 -2.762584 -15.112683 -17.904984 35.052705 -4.757435 -0.918723 -23.945962 -5.563464 19.409010 0.000000 0.000000 0.000000 -5.633534 -43.654242 -4.092622 0.000000 0.000001 0.000000 6.078333 4.394662 -1.315161 12.291220 8.793653 -2.923260 0.000000 0.000000 0.000000 12.291223 8.793642 -2.923256 -1.120875 -0.148254 0.158477 0.000000 0.000000 0.000000 12.291223 8.793642 -2.923256 1.559704 -0.882003 -6.930225 -13.113728 2.571166 -63.632296 10.587743 -46.992139 6.307649 0.000000 0.000000 0.000000 12.291223 8.793642 -2.923256 1.892362 8.982958 9.354385 -2.904494 -20.756043 58.240156 -6.773800 40.936869 8.076169 0.000000 0.000000 0.000000 
-0.956900 88.986008 -0.798428 0.000000 0.000000 0.000000 -3.129574 -44.533472 -3.520682 -34.978782 3.262531 19.621812 28.365460 -9.544678 -1.442996 6.471097 -3.921705 -12.350642 0.000000 0.000000 0.000000 -3.129574 -44.533472 -3.520682 -7.813563 -16.430870 -16.231791 36.127200 -3.159603 -1.474330 -22.010404 -4.367596 17.314637 0.000000 0.000000 0.000000 -3.129574 -44.533472 -3.520682 0.000000 0.000004 0.000000 6.152584 4.262724 -1.235733 12.436824 8.542456 -2.825187 0.000000 0.000000 0.000000 12.436822 8.542471 -2.825196 -1.727028 0.019986 0.377213 0.000000 0.000000 0.000000 12.436822 8.542471 -2.825196 1.771125 -0.000338 -5.528473 -12.652764 3.419921 -65.556518 10.459391 -46.149464 6.937317 0.000000 0.000000 0.000000 12.436822 8.542471 -2.825196 2.360575 9.141297 8.789003 -6.224306 -16.843468 56.255921 -6.050951 40.787643 8.249145 0.000000 0.000000 0.000000 
-0.068850 88.884262 -3.356430 0.000000 0.000000 0.000000 0.012490 -45.340336 -2.425763 -37.202750 3.281068 21.292956 23.308051 -7.075603 -0.658355 11.220846 -6.761959 -13.714908 0.000000 0.000000 0.000000 0.012490 -45.340336 -2.425763 -15.531331 -17.641274 -14.832727 40.384477 1.250984 -1.163518 -21.654620 -2.528384 12.636932 0.000000 0.000000 0.000000 0.012490 -45.340336 -2.425763 0.000000 0.000001 0.000000 6.547599 4.112918 -1.298225 13.241660 8.206901 -3.093097 0.000000 0.000000 0.000000 13.241656 8.206912 -3.093100 -2.948180 0.164323 0.758353 0.000000 0.000000 0.000000 13.241656 8.206912 -3.093100 1.992654 1.215093 -3.765831 -14.362798 4.724947 -68.730636 8.308362 -45.005476 8.233604 0.000000 0.000000 0.000000 13.241656 8.206912 -3.093100 2.869183 10.136831 7.947075 -9.208132 -13.910467 54.681736 -5.944568 45.337047 8.468020 0.000000 0.000000 0.000000 
0.669831 87.730835 -6.152119 0.000000 0.000000 0.000000 1.749567 -44.293965 -1.855069 -40.522679 3.028918 22.120703 20.141891 -7.307963 0.569873 15.425549 -9.862012 -15.289414 0.000000 0.000000 0.000000 1.749567 -44.293965 -1.855069 -26.880385 -18.241149 -15.725810 51.661396 10.713216 -0.837636 -20.663178 0.072835 6.998304 0.000000 0.000000 0.000000 1.749567 -44.293965 -1.855069 0.000000 0.000001 0.000000 7.440368 3.900222 -1.470196 15.050272 7.672925 -3.642615 0.000000 0.000000 0.000000 15.050272 7.672939 -3.642617 -4.272468 0.210153 0.965615 0.000000 0.000000 0.000000 15.050272 7.672939 -3.642617 2.274606 2.164881 -2.637893 -19.319118 2.677734 -69.781789 5.241548 -42.488858 9.295743 0.000000 0.000000 0.000000 15.050272 7.672939 -3.642617 3.480498 11.533877 6.196976 -12.807381 -12.946340 55.536056 -6.041707 52.591821 6.029722 0.000000 0.000000 0.000000 
1.198630 85.783241 -8.494682 0.000000 0.000000 0.000000 3.250791 -40.145045 -1.945888 -46.404005 2.079924 21.815563 19.327694 -10.039442 1.269652 19.325940 -12.934425 -15.823638 0.000000 0.000000 0.000000 3.250791 -40.145045 -1.945888 -40.145922 -17.969700 -18.316105 67.683159 15.868418 -0.917781 -16.719958 1.585304 1.497116 0.000000 0.000000 0.000000 3.250791 -40.145045 -1.945888 0.000000 0.000002 0.000000 8.183740 3.671667 -1.386615 16.550351 7.021423 -3.819291 0.000000 0.000000 0.000000 16.550356 7.021422 -3.819288 -4.825333 0.129961 0.783944 0.000000 0.000000 0.000000 16.550356 7.021422 -3.819288 2.551236 1.952122 -2.461241 -24.625957 -3.096991 -68.005619 2.936995 -40.285088 10.315345 0.000000 0.000000 0.000000 16.550356 7.021422 -3.819288 4.351265 11.873060 3.413795 -15.922551 -11.485253 58.020312 -3.879414 57.341733 -0.467398 0.000000 0.000000 0.000000 
1.317670 82.990471 -9.441784 0.000000 0.000000 0.000000 6.312021 -36.342552 -1.128827 -56.106189 -0.681856 20.980557 25.502897 -11.589260 1.223242 20.410427 -15.109990 -15.135547 0.000000 0.000000 0.000000 6.312021 -36.342552 -1.128827 -52.473348 -21.802095 -16.753127 82.271036 19.979908 -1.750020 -13.515426 5.334423 -19.328303 0.000000 0.000000 0.000000 6.312021 -36.342552 -1.128827 0.000000 0.000003 0.000000 9.246010 3.548396 -1.125186 18.680518 6.342854 -3.712572 0.000000 0.000000 0.000000 18.680528 6.342841 -3.712564 -5.587222 0.082626 0.703533 0.000000 0.000000 0.000000 18.680528 6.342841 -3.712564 2.409768 -0.023696 -1.069149 -26.943669 -8.028740 -65.406288 -3.859287 -39.704969 6.470772 0.000000 0.000000 0.000000 18.680528 6.342841 -3.712564 5.273184 11.729660 1.488830 -17.310162 -10.627642 58.132123 1.378171 66.741214 -10.105966 0.000000 0.000000 0.000000 
1.267689 79.123749 -10.385078 0.000000 0.000000 0.000000 9.817861 -32.115181 -0.045544 -67.045991 -4.129365 19.002602 32.276687 -12.643727 0.600841 21.588326 -16.994105 -13.918052 0.000000 0.000000 0.000000 9.817861 -32.115181 -0.045544 -63.750622 -24.821403 -15.380970 87.295623 30.121838 -2.400921 2.774187 3.266119 -27.001679 0.000000 0.000000 0.000000 9.817861 -32.115181 -0.045544 0.000000 -0.000002 0.000000 10.355987 3.241694 -1.347369 20.876352 5.384980 -4.041356 0.000000 0.000000 0.000000 20.876354 5.384977 -4.041352 -6.450908 0.046324 0.659174 0.000000 0.000000 0.000000 20.876354 5.384977 -4.041352 2.111230 -2.321507 0.855965 -25.136968 -11.107850 -60.323370 -10.142261 -46.610208 0.410269 0.000000 0.000000 0.000000 20.876354 5.384977 -4.041352 6.068747 12.456596 0.978814 -19.799047 -9.401214 54.459581 2.480858 73.339976 -14.079431 0.000000 0.000000 0.000000 
1.234306 75.346855 -10.962341 0.000000 0.000000 0.000000 13.628563 -27.682482 0.809725 -77.172497 -6.026953 17.413350 36.346227 -13.751940 -1.373321 22.724384 -18.899518 -12.984914 0.000000 0.000000 0.000000 13.628563 -27.682482 0.809725 -68.206583 -24.982949 -15.450800 92.720863 37.488087 -3.181830 -4.055707 4.808995 -29.575436 0.000000 0.000000 0.000000 13.628563 -27.682482 0.809725 0.000000 0.000000 0.000000 11.396832 2.930239 -1.709991 22.942132 4.157468 -4.819008 0.000000 0.000000 0.000000 22.942124 4.157479 -4.819009 -7.232142 0.012966 0.630334 0.000000 0.000000 0.000000 22.942124 4.157479 -4.819009 2.025442 -3.943426 1.754904 -21.176269 -13.081218 -52.329296 -14.296796 -59.543677 -5.698297 0.000000 0.000000 0.000000 22.942124 4.157479 -4.819009 6.807244 13.883766 0.608383 -22.483665 -8.077762 48.961207 -2.039461 76.975972 -11.031995 0.000000 0.000000 0.000000 
1.160533 71.609177 -11.191639 0.000000 0.000000 0.000000 17.594393 -23.116102 1.222230 -89.871711 -6.211018 15.318970 45.678680 -14.346882 -2.839817 25.151755 -19.812958 -8.557635 0.000000 0.000000 0.000000 17.594393 -23.116102 1.222230 -67.915002 -24.245481 -16.638675 99.676618 42.127309 -4.751100 -22.974803 5.195454 -33.167805 0.000000 0.000000 0.000000 17.594393 -23.116102 1.222230 -0.000001 0.000001 0.000000 12.137056 2.807274 -1.681527 24.419378 3.142908 -5.247856 0.000000 0.000000 0.000000 24.419359 3.142911 -5.247858 -7.753556 -0.027913 0.593935 0.000000 0.000000 0.000000 24.419359 3.142911 -5.247858 1.986441 -4.609425 2.532196 -18.556678 -15.819029 -44.278634 -15.116517 -71.077667 -8.820966 0.000000 0.000000 0.000000 24.419359 3.142911 -5.247858 7.501334 15.641406 0.256938 -24.416938 -7.553735 43.587726 -1.224986 79.985094 -13.404381 0.000000 0.000000 0.000000 
1.200505 67.471298 -11.680786 0.000000 0.000000 0.000000 21.593973 -18.401725 1.659040 -107.958913 -6.496626 13.473060 74.744399 -5.407713 -2.547489 24.128970 -20.032783 3.250503 0.000000 0.000000 0.000000 21.593973 -18.401725 1.659040 -76.474882 -24.033325 -18.045358 108.697495 39.362203 -5.788991 -27.223199 4.340822 -33.489275 0.000000 0.000000 0.000000 21.593973 -18.401725 1.659040 0.000000 0.000002 0.000000 12.600601 2.661907 -1.762202 25.322641 2.420191 -5.381854 0.000000 0.000000 0.000000 25.322641 2.420190 -5.381856 -7.850238 -0.087196 0.527767 0.000000 0.000000 0.000000 25.322641 2.420190 -5.381856 1.884389 -4.929972 3.009660 -16.702565 -18.049501 -36.180851 -9.939023 -82.813974 -5.757007 0.000000 0.000000 0.000000 25.322641 2.420190 -5.381856 8.080401 17.649648 0.279229 -25.233328 -7.580579 38.193953 6.062928 82.853555 -21.586719 0.000000 0.000000 0.000000 
